<?xml version="1.0" standalone="no"?>
<!DOCTYPE svg PUBLIC "-//W3C//DTD SVG 20010904//EN"
 "http://www.w3.org/TR/2001/REC-SVG-20010904/DTD/svg10.dtd">
<svg version="1.0" xmlns="http://www.w3.org/2000/svg"
 width="224.000000pt" height="236.000000pt" viewBox="0 0 224.000000 236.000000"
 preserveAspectRatio="xMidYMid meet">
<metadata>
Created by potrace 1.10, written by Peter Selinger 2001-2011
</metadata>
<g transform="translate(0.000000,236.000000) scale(0.100000,-0.100000)"
fill="#000000" stroke="none">
<path d="M1020 2134 c-160 -22 -260 -52 -370 -112 -301 -163 -492 -452 -520
-788 -11 -136 -1 -234 34 -357 99 -338 368 -597 706 -681 516 -128 1032 168
1186 678 27 89 48 234 38 262 -19 54 -20 54 -266 54 -128 0 -237 -4 -247 -10
-22 -11 -37 -48 -46 -109 -9 -65 -71 -185 -119 -229 -97 -89 -201 -127 -335
-120 -136 7 -248 69 -324 180 -124 179 -101 419 54 562 69 65 141 101 232 116
106 19 106 18 106 273 0 124 -5 223 -11 239 -13 34 -59 50 -118 42z m90 -274
l0 -240 -32 0 c-102 -1 -212 -52 -299 -139 -70 -71 -99 -121 -124 -216 -90
-349 228 -661 580 -569 78 20 138 54 203 118 84 81 142 202 142 298 l0 38 240
0 240 0 0 -34 c0 -62 -30 -204 -60 -288 -108 -299 -382 -539 -688 -602 -235
-49 -452 -17 -658 95 -292 161 -471 451 -490 794 -22 389 216 761 588 917 86
36 220 66 301 67 l57 1 0 -240z"/>
<path d="M223 1172 c-13 -2 -23 -8 -23 -13 0 -13 387 -12 395 1 4 6 -6 10 -22
10 -15 0 -95 1 -178 3 -82 1 -160 1 -172 -1z"/>
<path d="M1020 1476 c-79 -21 -168 -95 -210 -176 -66 -125 -27 -305 86 -399
121 -99 284 -106 406 -17 89 66 138 164 141 280 3 160 -143 312 -310 321 -38
2 -88 -2 -113 -9z m212 -54 c58 -25 118 -85 149 -148 51 -104 21 -253 -68
-335 -117 -108 -281 -111 -400 -6 -75 66 -114 188 -92 287 21 95 105 184 203
216 54 18 151 12 208 -14z"/>
<path d="M855 1141 c8 -14 502 -15 510 -1 4 7 -78 10 -255 10 -160 0 -259 -4
-255 -9z"/>
</g>
</svg>
